# xmcd
#
# Track frame offsets:
#	150
#	17861
#	34023
#	47761
#	61812
#	78719
#	92067
#	103975
#	116910
#	133100
#	147496
#	164735
#	179745
#	194186
#	211142
#
# Disc length: 2980
#
# Revision: 2
# Processed by: cddbd v1.5.1PL0 Copyright (c) Steve Scherf et al.
# Submitted via: CDex 1.40Release
# Normalized: r1:TDELIM( - )
#
DISCID=ee0ba20f
DTITLE=Country Now - CD 2
DYEAR=1998
DGENRE=Darkwave
TTITLE0=Gretchen Peters - On a bus to St Cloud
TTITLE1=Tom Wopat - The rock and roll of love
TTITLE2=Patty Loveless - Hurt me bad (in a real good way)
TTITLE3=George Strait - Love without end amen
TTITLE4=Mason Dixon - Exception to the rule
TTITLE5=Mark Chesnutt - It sure is Monday
TTITLE6=Tanya Tucker - It's a little too late
TTITLE7=Chris LeDoux - Cadillac ranch
TTITLE8=Lacy J Dalton - Black coffee
TTITLE9=Vince Gill - One more last change
TTITLE10=Chely Wright - Shut up and drive
TTITLE11=Billy Dean - If there hadn't been you
TTITLE12=New Grass Revival - You plant your fields
TTITLE13=Al Anderson - Listen to your heart
TTITLE14=Bob Woodruff - Almost Saturday night
EXTD=YEAR: 1998 ID3G: 50
EXTT0=
EXTT1=
EXTT2=
EXTT3=
EXTT4=
EXTT5=
EXTT6=
EXTT7=
EXTT8=
EXTT9=
EXTT10=
EXTT11=
EXTT12=
EXTT13=
EXTT14=
PLAYORDER=
